<?xml version="1.0" encoding="utf-8"?>
<!-- Generator: Adobe Illustrator 19.2.0, SVG Export Plug-In . SVG Version: 6.00 Build 0)  -->
<svg version="1.1" id="Layer_1" xmlns="http://www.w3.org/2000/svg" xmlns:xlink="http://www.w3.org/1999/xlink" x="0px" y="0px"
	 viewBox="0 0 600 150" style="enable-background:new 0 0 600 150;" xml:space="preserve">
<style type="text/css">
	.st0{fill:none;stroke:#FFFFFF;stroke-width:2;stroke-miterlimit:10;}
	.st1{fill:none;}
	.st2{enable-background:new    ;}
	.st3{fill:#FFFFFF;}
</style>
<line class="st0" x1="17.8" y1="112" x2="571.3" y2="111.5"/>
<line class="st0" x1="17.8" y1="25.7" x2="571.3" y2="25.2"/>
<line class="st0" x1="17.8" y1="47.3" x2="571.3" y2="46.8"/>
<line class="st0" x1="17.8" y1="68.7" x2="571.3" y2="68.2"/>
<line class="st0" x1="17.8" y1="90.4" x2="571.3" y2="89.9"/>
<rect x="-26.2" y="5.4" class="st1" width="86" height="88.4"/>
<rect x="16.7" y="31.6" class="st1" width="37.8" height="87.5"/>
<g class="st2">
	<path class="st3" d="M34.1,141.3V69.9c0.1-0.5,0.1-1.1,0.1-1.8c-0.1-0.7,0.1-1.3,0.3-1.9c0.6-1.6,1.8-3.3,3.7-5
		c1.8-1.7,3.9-3.1,6.3-4.2c1.6-0.7,3.1-1.2,4.3-1.5c1.3-0.3,2.7-0.4,4.4-0.4c1.8,0.1,3.3,0.3,4.4,0.7c1.1,0.4,2.1,1,3,1.9
		c1.1,1,1.8,2.2,1.9,3.7c0.1,1.5,0,2.8-0.5,4.1c-0.5,1.5-1.4,3-2.6,4.3c-1.3,1.4-2.8,2.6-4.5,3.7c-1.7,1.1-3.6,2-5.6,2.6
		c-2,0.6-4.1,1-6.2,1c-1.6,0-3-0.2-4.2-0.7c-1.2-0.5-2.3-1.1-3.2-1.9v66.8H34.1z"/>
</g>
<rect x="117.6" y="7.3" class="st1" width="95" height="45.5"/>
<rect x="54.5" y="27.2" class="st1" width="50" height="82.6"/>
<g class="st2">
	<path class="st3" d="M83.9,59.8c0.1-0.7,0.2-1.2,0.3-1.7c0.1-0.5,0.3-0.9,0.4-1.2c0.4-1.2,1-2.2,1.8-3.1c0.7-0.9,1.5-1.7,2.4-2.4
		c0.8-0.7,1.7-1.3,2.5-1.8c0.8-0.5,1.5-0.9,2.1-1.2c1.3-0.7,2.9-1.2,4.8-1.7c1.9-0.4,3.9-0.6,5.8-0.4c1.1,0.1,2.4,0.3,3.9,0.8
		c1.5,0.4,2.7,1.3,3.6,2.7c0.6,1,1,1.8,1.2,2.5c0.2,0.7,0.2,1.7,0,3c-0.1,0.7-0.3,1.4-0.7,2.1c-0.3,0.7-0.6,1.3-0.8,1.7
		c-1.1,1.9-2.3,3.5-3.8,4.9c-1.5,1.4-2.8,2.4-4.1,3.2c-1.3,0.7-2.8,1.2-4.4,1.6C97.2,69,95.3,69.1,93,69c-0.4-0.1-1-0.1-1.7-0.2
		s-1.4-0.2-2.1-0.5c-0.7-0.2-1.4-0.5-2.1-0.8c-0.7-0.3-1.3-0.8-1.8-1.3v67.3h-1.6V59.8z M86.2,64.7c0.4,0.7,1.1,1.2,1.8,1.5
		c0.8,0.3,1.6,0.4,2.5,0.4c0.9,0,1.8-0.1,2.6-0.3c0.9-0.2,1.6-0.4,2.2-0.6c1-0.3,2-0.7,2.9-1.2c0.9-0.4,1.8-0.9,2.6-1.3
		c0.9-0.4,1.9-1,3-1.7c1.1-0.7,2.2-1.5,3.1-2.5c0.5-0.5,1-1,1.6-1.6c0.6-0.6,1-1.2,1.4-1.9c0.4-0.7,0.6-1.4,0.7-2.1
		s-0.1-1.6-0.5-2.4c-0.4-1-1.1-1.6-2.2-1.8c-1.1-0.3-2.1-0.3-3.1-0.3c-1,0.1-1.9,0.2-2.6,0.4c-0.7,0.2-0.9,0.3-0.6,0.2
		c-1.3,0.4-2.5,0.9-3.6,1.4c-1.1,0.5-2.1,1-3,1.5c-0.6,0.3-1.1,0.6-1.6,0.9c-0.4,0.3-0.9,0.6-1.3,0.8c-0.4,0.3-0.8,0.6-1.3,0.9
		c-0.4,0.3-1,0.7-1.6,1.2c-0.7,0.5-1.3,1.1-1.8,1.8c-0.6,0.7-1,1.5-1.3,2.3c-0.3,0.8-0.5,1.6-0.6,2.3C85.7,63.3,85.8,64.1,86.2,64.7
		z"/>
</g>
<rect x="23.4" y="5.3" class="st1" width="33.8" height="40.3"/>
<g class="st2">
	<path class="st3" d="M34.1,26.4v-3.9l22.8-9.6v4.2l-18,7.4l18,7.5v4.2L34.1,26.4z"/>
</g>
<rect x="79.5" y="7" class="st1" width="33.8" height="40.3"/>
<g class="st2">
	<path class="st3" d="M118.7,24.3v3.9l-22.8,9.6v-4.2l18-7.4l-18-7.5v-4.2L118.7,24.3z"/>
</g>
<rect x="66.3" y="7.6" class="st1" width="19.3" height="39"/>
<g class="st2">
	<path class="st3" d="M74.3,42.3l10-35.5h3.4l-9.9,35.5H74.3z"/>
</g>
<rect x="67.8" y="7.6" class="st1" width="19.3" height="39"/>
<g class="st2">
	<path class="st3" d="M67.8,42.3l10-35.5h3.4l-9.9,35.5H67.8z"/>
</g>
<rect x="130.6" y="55.6" class="st1" width="462.7" height="47.5"/>
<g class="st2">
	<path class="st3" d="M131.5,87.6c0.1-0.8,0.2-1.5,0.4-2.2c0.2-0.7,0.3-1.4,0.5-2.1s0.4-1.4,0.6-2.1s0.5-1.6,0.8-2.5v-0.2
		c-1.3,0.7-2.1,1.1-2.6,1.1s-0.8-0.2-0.8-0.6c0-0.4,0.2-0.9,0.5-1.5s0.8-1.2,1.3-1.7s1-1,1.6-1.3c0.5-0.3,1-0.4,1.3-0.1
		c0.4,0,0.7,0.1,0.9,0.2s0.5,0.3,0.8,0.6c0.7-0.6,1.4-1,2-1.4c0.6-0.3,1.4-0.5,2.3-0.5c1.4,0,2.4,0.3,3.1,0.9s1.2,1.6,1.5,3
		c0.5-0.5,1-1,1.5-1.5c0.4-0.5,0.9-0.8,1.4-1.2s1.1-0.6,1.7-0.8c0.6-0.2,1.3-0.3,2-0.3c0.6,0,1.2,0.2,1.8,0.7c0.6,0.5,1,1,1.3,1.5
		c0,0.1,0,0.4,0,0.8s0,0.7,0,0.9c0,1.1-0.1,2.1-0.4,3.1c-0.3,1-0.4,2-0.4,3c0,0.4,0.1,0.9,0.2,1.3c0.1,0.5,0.4,0.7,1,0.7
		c0.8,0,1.4-0.2,2-0.5s1.2-0.7,1.7-1.1s1-0.9,1.4-1.5s0.8-1,1.2-1.5c0.4-0.5,0.7-0.8,1-1.1c0.3-0.3,0.6-0.5,0.9-0.5
		c0.2,0,0.5,0.1,0.7,0.3c0.3,0.2,0.4,0.4,0.4,0.6c0,0,0,0.1,0,0.1c0,0.1,0,0.1,0,0.1c-0.3,1-0.8,1.9-1.4,2.8
		c-0.6,0.9-1.3,1.6-2.1,2.3c-0.8,0.7-1.6,1.2-2.6,1.6c-1,0.4-2,0.6-3,0.6c-1,0-1.8-0.1-2.5-0.4c-0.7-0.3-1.2-0.9-1.6-1.9
		c0-0.1,0-0.3,0-0.6c0-0.3,0-0.5,0-0.6c0-1.2,0.1-2.3,0.4-3.4s0.4-2.2,0.4-3.3c0-0.1,0-0.3,0-0.6c0-0.3,0-0.5,0-0.6
		c-0.1-0.2-0.3-0.2-0.6-0.2c-0.3,0-0.5,0-0.7,0c-0.7,0-1.3,0.2-1.9,0.7c-0.6,0.5-1.1,1.1-1.6,1.8c-0.5,0.7-0.9,1.5-1.3,2.4
		c-0.4,0.9-0.7,1.8-1,2.7s-0.5,1.7-0.7,2.5c-0.2,0.8-0.3,1.4-0.3,1.9l-0.5,0.5h-1.6c-0.3,0-0.4-0.1-0.4-0.4c0-0.3,0-0.5,0-0.7
		c0-0.8,0.1-1.5,0.2-2.3c0.1-0.8,0.2-1.5,0.4-2.3s0.3-1.5,0.4-2.3c0.1-0.8,0.2-1.5,0.2-2.3c0-0.3-0.1-0.5-0.1-0.8
		c0-0.3-0.1-0.6-0.2-0.8s-0.2-0.5-0.4-0.6s-0.5-0.3-0.8-0.3c-0.5,0-1,0.1-1.5,0.3s-0.9,0.4-1.3,0.7c-0.4,0.3-0.7,0.7-1,1.1
		c-0.3,0.4-0.5,0.9-0.6,1.4l-2.8,9.1l-0.4,0.5c-0.4,0-0.6,0-0.7,0c-0.3,0-0.7,0-1.1-0.1c-0.4-0.1-0.5-0.4-0.5-0.9V87.6z"/>
	<path class="st3" d="M161.3,100.5c0-2,0.4-3.9,1.3-5.6s2-3.3,3.4-4.6c1.4-1.4,2.9-2.6,4.6-3.7c1.7-1.1,3.4-2,5-2.9l1.4-4.4
		c-0.2,0.2-0.5,0.5-0.9,0.9c-0.5,0.4-0.9,0.9-1.4,1.4c-0.5,0.5-1,0.9-1.5,1.4s-0.8,0.7-1,0.9c-0.4,0.3-0.8,0.7-1.4,1.1
		c-0.5,0.4-1.1,0.8-1.7,1.1s-1.2,0.7-1.9,0.9c-0.6,0.2-1.2,0.4-1.7,0.4c-0.7,0-1.1-0.2-1.3-0.5c-0.2-0.3-0.3-0.8-0.3-1.4
		c0-0.5,0-1,0.1-1.5c0.1-0.5,0.1-1.1-0.1-1.6l1.8-5c0.3-0.3,0.6-0.7,0.8-1.3c0.3-0.6,0.5-1.2,0.8-1.8c0.3-0.6,0.5-1.1,0.8-1.5
		c0.3-0.4,0.6-0.7,1-0.7c0.4,0,0.7,0.1,1,0.3c0.3,0.2,0.4,0.5,0.4,0.9c0,0.3,0,0.6-0.1,0.8c-0.1,0.2-0.2,0.5-0.4,0.9
		c-0.4,0.8-0.8,1.6-1.2,2.4c-0.4,0.8-0.8,1.5-1.1,2.3s-0.6,1.5-0.8,2.3c-0.2,0.8-0.3,1.7-0.3,2.6h0.2c0.4-0.2,0.7-0.4,0.9-0.5
		s0.5-0.3,0.7-0.4c0.3-0.2,0.5-0.3,0.7-0.4c1.7-1.1,3.2-2.4,4.5-4s2.6-3.1,3.9-4.7c0.1-0.2,0.2-0.3,0.3-0.4s0.2-0.2,0.2-0.2
		c0.1,0,0.1-0.1,0.2-0.1s0.2,0,0.4,0c0.4,0,0.8,0.1,1.1,0.3c0.3,0.2,0.4,0.6,0.5,1.1c0,0.4,0,0.9-0.1,1.5s-0.2,1.1-0.4,1.7
		c-0.2,0.6-0.3,1.1-0.5,1.7c-0.2,0.5-0.3,1-0.4,1.3v0.7c0.1,0,0.2-0.1,0.4-0.1s0.4-0.1,0.5-0.1c0.2,0,0.7-0.2,1.5-0.5s1.8-0.6,2.7-1
		s1.9-0.7,2.7-1s1.4-0.5,1.6-0.6h0.1c0.2,0,0.4,0.1,0.6,0.2c0.2,0.2,0.3,0.3,0.3,0.6s-0.1,0.4-0.2,0.6s-0.3,0.3-0.5,0.4
		s-0.4,0.2-0.6,0.3c-0.2,0.1-0.4,0.2-0.6,0.2c-0.2,0.1-0.5,0.3-0.9,0.4c-0.4,0.2-0.9,0.4-1.4,0.6s-1.1,0.4-1.6,0.7s-1.1,0.5-1.6,0.7
		c-1.3,0.5-2.7,1.1-4.2,1.7l-4.1,15.6c-0.2,0.8-0.5,1.5-1.1,2.3s-1.1,1.6-1.8,2.3c-0.7,0.7-1.4,1.2-2.3,1.7
		c-0.8,0.4-1.7,0.6-2.5,0.6c-0.9,0-1.6-0.2-2.3-0.7c-0.6-0.5-1.1-1-1.5-1.7c-0.4-0.7-0.7-1.5-0.9-2.3
		C161.4,102,161.3,101.2,161.3,100.5z M163.8,100.5c0,0.4,0,0.9,0.1,1.4c0.1,0.5,0.2,1,0.4,1.5c0.2,0.5,0.5,0.9,0.8,1.2
		s0.8,0.5,1.3,0.5c0.7,0,1.3-0.2,1.9-0.6c0.6-0.4,1.1-0.9,1.5-1.5c0.5-0.6,0.8-1.3,1.1-1.9c0.3-0.7,0.6-1.3,0.8-1.8
		c0.1-0.4,0.2-0.9,0.4-1.6s0.4-1.3,0.5-2c0.2-0.7,0.3-1.2,0.4-1.8c0.1-0.5,0.2-0.8,0.2-0.9v-0.2l1.4-5.9c-1.3,0.4-2.5,1.1-3.8,2.1
		c-1.3,1-2.5,2.1-3.5,3.4c-1.1,1.3-1.9,2.7-2.6,4.1C164.2,97.7,163.8,99.1,163.8,100.5z"/>
	<path class="st3" d="M211.2,82.1c-0.3,0.1-0.5,0.2-0.8,0.2s-0.6,0-0.8,0s-0.6,0-0.8,0s-0.6,0.1-0.8,0.2c-0.5,0.1-0.9,0-1-0.1
		c-0.2-0.1-0.2-0.3-0.1-0.6c0.1-0.3,0.2-0.5,0.5-0.8s0.6-0.6,1-0.8s0.8-0.4,1.2-0.5s0.8-0.1,1.1,0c-0.2-0.6-0.1-1,0-1.5
		s0.6-0.6,1.1-0.6c0.3,0,0.5,0,0.8,0.1s0.4,0.2,0.5,0.4c0.5-0.3,1.1-0.8,1.9-1.4c0.8-0.7,1.6-1.4,2.4-2.1c0.8-0.7,1.6-1.3,2.3-1.9
		c0.7-0.5,1.2-0.8,1.4-0.8c0.1,0,0.2,0,0.4,0c0.2,0,0.3,0.1,0.5,0.1c0.2,0.1,0.3,0.1,0.4,0.2c0.1,0.1,0.2,0.2,0.2,0.4v2
		c-0.2,0.9-0.4,1.7-0.6,2.5c-0.2,0.8-0.4,1.5-0.5,2.3s-0.2,1.5-0.3,2.2c-0.1,0.8-0.1,1.5-0.1,2.4c0.5,0,1.1-0.1,1.8-0.3
		s1.4-0.5,2.1-0.8c0.7-0.3,1.4-0.6,2-1c0.6-0.3,1.1-0.6,1.5-0.8c0.1,0,0.2-0.1,0.4-0.3c0.2-0.2,0.5-0.4,0.7-0.6
		c0.3-0.2,0.5-0.4,0.7-0.6s0.4-0.3,0.4-0.4c0.1-0.1,0.2-0.1,0.5-0.3c0.3-0.1,0.4-0.2,0.4-0.2c0.1,0,0.2,0,0.4,0.1
		c0.1,0.1,0.2,0.2,0.3,0.4s0.2,0.3,0.2,0.4s0.1,0.2,0.1,0.3c0,0.3-0.1,0.6-0.4,0.9c-0.3,0.3-0.5,0.6-0.9,0.9
		c-0.3,0.3-0.7,0.5-1.1,0.8c-0.4,0.2-0.6,0.4-0.8,0.6c-0.3,0.1-0.7,0.3-1.3,0.6s-1.3,0.6-1.9,0.9c-0.7,0.3-1.3,0.6-1.9,0.9
		s-1,0.5-1.3,0.6c-0.1,0-0.2,0.1-0.4,0.1c-0.2,0-0.5,0.1-0.7,0.2c-0.3,0.1-0.5,0.2-0.7,0.2s-0.4,0.1-0.4,0.1
		c-0.3,0.1-0.5,0.3-0.6,0.5s-0.3,0.4-0.4,0.7s-0.3,0.4-0.5,0.6c-0.2,0.2-0.5,0.2-1,0.1c0,0-0.2-0.1-0.4-0.2s-0.4-0.2-0.4-0.3
		c-0.8-0.5-1.4-1-1.9-1.5c-0.5-0.5-1-0.9-1.5-1.4c-0.4-0.5-0.9-0.9-1.2-1.5C212.1,83.4,211.7,82.8,211.2,82.1z M214.1,80.2
		c0.2,0.5,0.4,0.9,0.6,1.4c0.2,0.4,0.4,0.9,0.7,1.2s0.6,0.7,1,1c0.4,0.3,0.8,0.5,1.3,0.5c0.1-0.5,0.1-1,0.2-1.7s0.2-1.3,0.3-2.1
		c0.1-0.7,0.3-1.4,0.4-2.1c0.2-0.7,0.4-1.3,0.6-1.9h-0.5c-0.5,0.3-1,0.7-1.4,1c-0.4,0.3-0.8,0.6-1.2,0.9c-0.4,0.3-0.7,0.6-1,0.8
		c0,0-0.1,0.1-0.1,0.1c-0.1,0.1-0.1,0.1-0.1,0.1c0,0.1-0.2,0.2-0.4,0.3C214.3,80.1,214.2,80.2,214.1,80.2z M219.4,75.9
		c-0.1,0-0.1,0.1-0.1,0.2s0,0.2,0.1,0.2c0.1,0,0.2-0.1,0.2-0.2S219.5,75.9,219.4,75.9z"/>
	<path class="st3" d="M231,81.4c0.1-0.2,0.2-0.5,0.3-1s0.3-1,0.4-1.6s0.3-1.1,0.4-1.6c0.1-0.5,0.2-0.9,0.3-1.1
		c0.2-0.8,0.4-1.6,0.7-2.4c0.3-0.9,0.6-1.7,1.1-2.4s1.1-1.4,1.8-1.9c0.7-0.5,1.6-0.7,2.7-0.7c0.4,0,0.7,0.1,0.9,0.4
		c0.2,0.3,0.3,0.6,0.4,1c0,0.1,0,0.4,0,0.7c0,0.3,0,0.6,0,0.7c0,1.3-0.1,2.5-0.4,3.6c-0.3,1-0.7,2-1.2,2.9c-0.5,0.9-1.2,1.7-2,2.5
		c-0.8,0.8-1.7,1.6-2.7,2.4c0,0.1-0.1,0.3-0.1,0.5c-0.1,0.2-0.1,0.4-0.1,0.5v0.1c0,0.6,0.1,1,0.3,1.4s0.4,0.6,0.8,0.8
		s0.7,0.3,1.1,0.4s0.9,0.1,1.4,0.1c1.5,0,2.9-0.2,4.2-0.6c1.3-0.4,2.6-1.1,3.7-2c0.2-0.2,0.4-0.4,0.6-0.7s0.5-0.6,0.7-0.9
		c0.3-0.3,0.5-0.6,0.8-0.8s0.6-0.4,0.9-0.4c0.3,0,0.5,0.1,0.6,0.4c0.1,0.3,0.1,0.5,0.1,0.8c0,0.7-0.2,1.3-0.6,1.9s-1,1.2-1.6,1.6
		c-0.7,0.5-1.4,0.9-2.3,1.3c-0.9,0.4-1.7,0.7-2.6,0.9s-1.6,0.4-2.4,0.6c-0.8,0.1-1.4,0.2-1.9,0.2c-1.7,0-3-0.3-4.1-0.8
		c-1.1-0.5-1.9-1.6-2.3-3.3L231,81.4z M237.7,72.2c-0.6,0.6-1.1,1.1-1.5,1.5c-0.4,0.5-0.6,0.9-0.8,1.4c-0.2,0.5-0.4,1-0.5,1.6
		s-0.3,1.2-0.4,2c0.6-0.5,1.1-0.9,1.5-1.4c0.4-0.5,0.7-1,1-1.5c0.3-0.5,0.4-1,0.6-1.6C237.6,73.6,237.7,72.9,237.7,72.2z"/>
	<path class="st3" d="M248.6,82.3c0.2-1.6,0.5-3.1,1.1-4.5c0.6-1.4,1.2-2.7,2-3.7c0.8-1,1.5-1.8,2.3-2.4s1.5-0.7,2.1-0.5
		c0.2-0.1,0.3-0.2,0.4-0.3c0.1-0.1,0.2-0.2,0.3-0.2c0.1-0.1,0.2-0.1,0.3-0.2c0.1,0,0.3-0.1,0.5-0.1c0.4,0,0.8,0.1,1.2,0.4
		c0.3,0.3,0.6,0.6,0.9,1c0.3,0.4,0.5,0.8,0.6,1.3s0.2,0.9,0.2,1.2c0,0.4-0.2,0.7-0.5,0.8c-0.3,0.2-0.7,0.2-1.1,0.2
		c-0.3,0-0.5-0.1-0.7-0.2s-0.4-0.2-0.5-0.4s-0.3-0.3-0.4-0.5c-0.2-0.2-0.4-0.3-0.6-0.3h0h-0.1c0,0-0.1,0.1-0.2,0.2
		c-0.1,0.1-0.2,0.2-0.2,0.3c-0.7,0.8-1.3,1.5-1.8,2.1s-1.1,1.2-1.5,1.9s-0.8,1.3-1,2s-0.4,1.6-0.4,2.6c0,0.1,0,0.2,0,0.4
		s0,0.4,0,0.6c0,0.2,0,0.4,0,0.6s0,0.3,0,0.4c0.1,0.3,0.2,0.5,0.5,0.7c0.3,0.2,0.6,0.3,0.8,0.5c0.1,0,0.3,0,0.7,0s0.6,0,0.7,0
		c1.1,0,2.5-0.2,4-0.5c1.5-0.4,3.1-0.8,4.6-1.4s3-1.3,4.4-2.1c1.4-0.8,2.5-1.7,3.3-2.6c0.2-0.3,0.4-0.6,0.5-1s0.3-0.9,0.5-1.3
		c0.2-0.4,0.4-0.8,0.6-1.1c0.2-0.3,0.5-0.5,1-0.5c0.4,0,0.7,0.2,0.8,0.5c0.1,0.3,0.2,0.6,0.2,1c0,1-0.2,1.9-0.7,2.7
		c-0.5,0.8-1.1,1.5-1.8,2.2c-0.7,0.7-1.5,1.2-2.4,1.7c-0.9,0.5-1.7,0.9-2.5,1.3c-0.2,0.1-0.7,0.2-1.4,0.5c-0.7,0.3-1.5,0.6-2.4,0.9
		s-1.7,0.6-2.5,0.9s-1.4,0.5-1.8,0.7c-0.5,0.2-0.9,0.3-1.3,0.4c-0.3,0.1-0.7,0.1-0.9,0.2s-0.6,0.1-0.9,0.1c-0.3,0-0.6,0-1.1,0
		c-1.1,0-2.1-0.1-2.8-0.4c-0.7-0.3-1.3-0.7-1.8-1.2c-0.4-0.5-0.8-1.2-1-2C248.8,84.3,248.6,83.4,248.6,82.3z"/>
	<path class="st3" d="M272.9,85.1c0,0,0-0.1,0-0.3c0-0.2,0.1-0.4,0.1-0.6c0-0.2,0.1-0.4,0.1-0.6c0-0.2,0-0.3,0-0.4V83v-0.3l0.7-3
		c0.5-1.1,1.1-2.2,1.7-3.2c0.6-1,1.2-1.9,2-2.7s1.6-1.4,2.6-1.9s2.2-0.7,3.6-0.7c0.3,0,0.6,0.1,1.1,0.3s0.8,0.4,1.3,0.6
		s0.8,0.5,1.2,0.8c0.4,0.3,0.6,0.5,0.8,0.7c1-0.2,1.7-0.2,2.1-0.3c0.4,0,0.8,0,1.1,0c0.3,0,0.6-0.1,1-0.2c0.4-0.1,0.9-0.3,1.7-0.6
		c0.5-0.2,1-0.2,1.5-0.2c0.2,0,0.4,0.1,0.6,0.3c0.2,0.2,0.3,0.4,0.3,0.7c0,0.3-0.1,0.6-0.3,0.8c-0.2,0.3-0.5,0.4-0.8,0.5l-5.9,1.3
		l-0.5,0.2c0,1.7-0.4,3.3-1.1,4.8c-0.7,1.5-1.7,2.9-2.9,4c-1.2,1.2-2.6,2.1-4.1,2.7c-1.6,0.7-3.2,1-4.9,1c-0.1,0-0.3,0-0.6,0
		s-0.5,0-0.6,0c-0.7-0.3-1.2-0.8-1.4-1.5C273,86.4,272.9,85.7,272.9,85.1z M275.9,86c0,0.2,0.2,0.2,0.4,0.2c0.2,0,0.4,0,0.5,0
		c1.1,0,2.3-0.3,3.5-0.9c1.2-0.6,2.3-1.3,3.2-2.3c1-0.9,1.7-2,2.3-3.1s0.9-2.4,0.9-3.5c-1,0-2-0.1-3-0.3c-1-0.2-2-0.3-2.9-0.3h0
		l-3.9,4.1c-0.2,0.2-0.4,0.5-0.5,0.9c-0.1,0.4-0.2,0.8-0.3,1.2c-0.1,0.4-0.1,0.9-0.1,1.3c0,0.4,0,0.8,0,1.2c0,0.1,0,0.3,0,0.7
		S275.8,85.9,275.9,86z"/>
	<path class="st3" d="M295.2,87.8l1.6-9.4v-1.3l0.9-6.2c0.1-0.1,0.3-0.2,0.5-0.2s0.4,0,0.5,0c0.3,0,0.5,0.1,0.9,0.3s0.5,0.4,0.5,0.7
		v3.2c0.1-0.1,0.3-0.3,0.7-0.6s0.6-0.6,1-0.9s0.7-0.6,1-0.9s0.5-0.5,0.6-0.6c0.3-0.3,0.8-0.6,1.2-0.8s0.9-0.3,1.4-0.3
		c0.9,0,1.6,0.3,2.1,0.8s0.8,1.3,0.8,2.2c0,0.1,0,0.1,0,0.1s0,0.1,0,0.1v0.2l-1.8,8v3.8c1,0,2-0.2,3-0.6s2.1-0.9,3-1.5
		s1.9-1.3,2.7-2s1.6-1.5,2.2-2.2h0.2c0.2,0,0.4,0.1,0.5,0.2s0.2,0.3,0.2,0.5c0,0.7-0.2,1.4-0.7,2s-1,1.3-1.7,1.9s-1.5,1.2-2.4,1.7
		s-1.8,1-2.7,1.4s-1.8,0.7-2.6,0.9s-1.6,0.3-2.2,0.3s-1.1-0.1-1.4-0.3s-0.6-0.5-0.8-0.9s-0.3-0.8-0.3-1.2s-0.1-0.9-0.1-1.4v-0.6
		l1.8-9.1v-1.5c-0.8,0-1.5,0.3-2.2,1s-1.4,1.5-2,2.4s-1.1,1.9-1.5,2.9s-0.7,1.8-0.9,2.4c-0.1,0.2-0.2,0.6-0.3,1.2s-0.2,1.2-0.4,1.8
		s-0.2,1.2-0.3,1.8s-0.2,1-0.2,1.2c0,0.2,0,0.3-0.2,0.4s-0.3,0.2-0.5,0.2s-0.4,0.1-0.6,0.1c-0.2,0-0.4,0-0.5,0c-0.3,0-0.6,0-0.8-0.1
		s-0.4-0.3-0.4-0.7V87.8z"/>
	<path class="st3" d="M328.5,81.6c-0.2,0.2-0.5,0.4-0.9,0.8s-0.9,0.8-1.4,1.2s-0.9,0.8-1.4,1.2s-0.8,0.6-0.9,0.7
		c-0.1,0-0.2,0.1-0.5,0.3s-0.6,0.4-1,0.6s-0.8,0.5-1.1,0.7s-0.7,0.4-0.9,0.5c-0.4,0.2-0.6,0.3-0.8,0.4s-0.4,0.1-0.7,0.1
		c-0.5,0-1-0.2-1.6-0.5s-0.8-0.8-0.8-1.4v-5.1l0.7-3.4c0.3-1.3,0.7-2.4,1.2-3.2s1-1.5,1.6-2.1s1.4-1,2.4-1.2s2-0.5,3.3-0.8
		c0.1,0,0.3-0.1,0.6-0.2s0.5-0.2,0.6-0.2h0.7c0.5,0,0.9,0.1,1.3,0.3s0.8,0.5,1.1,0.8l2.3-10c-0.1-0.3-0.1-0.8,0-1.4s0.2-1.2,0.4-1.9
		s0.4-1.2,0.7-1.6s0.6-0.7,1-0.7c0.5,0,0.8,0.2,1.1,0.5s0.4,0.8,0.3,1.3L333,72.7c-0.6,1.3-1,2.7-1.2,4s-0.4,2.7-0.4,4.2
		c0,0.7,0,1.3,0.1,2s0.3,1.3,0.5,1.8s0.6,1,1.1,1.3s1.1,0.5,1.8,0.5c1.7,0,3.3-0.3,4.9-0.9s3.1-1.4,4.3-2.5c0.1,0,0.1,0,0.1,0
		s0.1,0,0.1,0c0.3,0,0.5,0.1,0.7,0.2c0,0.1,0,0.2,0,0.3s0,0.2,0,0.3c0,0.5-0.2,1-0.6,1.4s-0.9,0.8-1.6,1.2s-1.3,0.7-2.1,1
		s-1.5,0.5-2.3,0.8s-1.5,0.4-2.1,0.5s-1.2,0.1-1.5,0.1c-1.1,0-2-0.2-2.7-0.5s-1.3-0.9-1.8-1.5s-0.9-1.4-1.1-2.3s-0.4-1.8-0.6-2.8
		H328.5z M319.4,79.8c0,0.2,0,0.5-0.1,0.9s-0.1,0.9-0.1,1.4s-0.1,1-0.1,1.5s-0.1,0.8-0.1,1c0,0.1,0,0.2,0,0.5s0,0.4,0,0.5
		c0.4,0,1-0.2,1.7-0.5s1.4-0.8,2.2-1.4s1.5-1.2,2.3-2s1.5-1.5,2.1-2.2s1.1-1.4,1.5-2.1s0.6-1.3,0.6-1.8c0-0.2-0.1-0.4-0.4-0.7
		s-0.5-0.5-0.8-0.8s-0.6-0.5-0.9-0.7s-0.6-0.3-0.8-0.3c-0.7-0.2-1.4-0.2-2.3,0.2s-1.7,0.8-2.4,1.5s-1.4,1.4-1.8,2.3
		S319.2,78.9,319.4,79.8z"/>
	<path class="st3" d="M365.6,87.6c0.1-0.8,0.2-1.5,0.4-2.2s0.3-1.4,0.5-2.1s0.4-1.4,0.6-2.1s0.5-1.6,0.8-2.5v-0.2
		c-1.3,0.7-2.1,1.1-2.6,1.1s-0.8-0.2-0.8-0.6s0.2-0.9,0.5-1.5s0.8-1.2,1.3-1.7s1-1,1.6-1.3s1-0.4,1.3-0.1c0.4,0,0.7,0.1,0.9,0.2
		s0.5,0.3,0.8,0.6c0.7-0.6,1.4-1,2-1.4s1.4-0.5,2.3-0.5c1.4,0,2.4,0.3,3.1,0.9s1.2,1.6,1.5,3c0.5-0.5,1-1,1.5-1.5s0.9-0.8,1.4-1.2
		s1.1-0.6,1.7-0.8s1.3-0.3,2-0.3c0.6,0,1.2,0.2,1.8,0.7s1,1,1.3,1.5c0,0.1,0,0.4,0,0.8s0,0.7,0,0.9c0,1.1-0.1,2.1-0.4,3.1
		s-0.4,2-0.4,3c0,0.4,0.1,0.9,0.2,1.3s0.4,0.7,1,0.7c0.8,0,1.4-0.2,2-0.5s1.2-0.7,1.7-1.1s1-0.9,1.4-1.5s0.8-1,1.2-1.5
		s0.7-0.8,1-1.1s0.6-0.5,0.9-0.5c0.2,0,0.5,0.1,0.7,0.3s0.4,0.4,0.4,0.6c0,0,0,0.1,0,0.1s0,0.1,0,0.1c-0.3,1-0.8,1.9-1.4,2.8
		s-1.3,1.6-2.1,2.3s-1.6,1.2-2.6,1.6s-2,0.6-3,0.6c-1,0-1.8-0.1-2.5-0.4s-1.2-0.9-1.6-1.9c0-0.1,0-0.3,0-0.6s0-0.5,0-0.6
		c0-1.2,0.1-2.3,0.4-3.4s0.4-2.2,0.4-3.3c0-0.1,0-0.3,0-0.6s0-0.5,0-0.6c-0.1-0.2-0.3-0.2-0.6-0.2s-0.5,0-0.7,0
		c-0.7,0-1.3,0.2-1.9,0.7s-1.1,1.1-1.6,1.8s-0.9,1.5-1.3,2.4s-0.7,1.8-1,2.7s-0.5,1.7-0.7,2.5s-0.3,1.4-0.3,1.9l-0.5,0.5h-1.6
		c-0.3,0-0.4-0.1-0.4-0.4s0-0.5,0-0.7c0-0.8,0.1-1.5,0.2-2.3s0.2-1.5,0.4-2.3s0.3-1.5,0.4-2.3s0.2-1.5,0.2-2.3
		c0-0.3-0.1-0.5-0.1-0.8s-0.1-0.6-0.2-0.8s-0.2-0.5-0.4-0.6s-0.5-0.3-0.8-0.3c-0.5,0-1,0.1-1.5,0.3s-0.9,0.4-1.3,0.7s-0.7,0.7-1,1.1
		s-0.5,0.9-0.6,1.4l-2.8,9.1l-0.4,0.5c-0.4,0-0.6,0-0.7,0c-0.3,0-0.7,0-1.1-0.1s-0.5-0.4-0.5-0.9V87.6z"/>
	<path class="st3" d="M397.6,85.1c0,0,0-0.1,0-0.3s0.1-0.4,0.1-0.6s0.1-0.4,0.1-0.6s0-0.3,0-0.4V83v-0.3l0.7-3
		c0.5-1.1,1.1-2.2,1.7-3.2s1.2-1.9,2-2.7s1.6-1.4,2.6-1.9s2.2-0.7,3.6-0.7c0.3,0,0.6,0.1,1.1,0.3s0.8,0.4,1.3,0.6s0.8,0.5,1.2,0.8
		s0.6,0.5,0.8,0.7c1-0.2,1.7-0.2,2.1-0.3s0.8,0,1.1,0s0.6-0.1,1-0.2s0.9-0.3,1.7-0.6c0.5-0.2,1-0.2,1.5-0.2c0.2,0,0.4,0.1,0.6,0.3
		s0.3,0.4,0.3,0.7c0,0.3-0.1,0.6-0.3,0.8s-0.5,0.4-0.8,0.5l-5.9,1.3l-0.5,0.2c0,1.7-0.4,3.3-1.1,4.8s-1.7,2.9-2.9,4
		s-2.6,2.1-4.1,2.7s-3.2,1-4.9,1c-0.1,0-0.3,0-0.6,0s-0.5,0-0.6,0c-0.7-0.3-1.2-0.8-1.4-1.5S397.6,85.7,397.6,85.1z M400.6,86
		c0,0.2,0.2,0.2,0.4,0.2s0.4,0,0.5,0c1.1,0,2.3-0.3,3.5-0.9s2.3-1.3,3.2-2.3s1.7-2,2.3-3.1s0.9-2.4,0.9-3.5c-1,0-2-0.1-3-0.3
		s-2-0.3-2.9-0.3h0l-3.9,4.1c-0.2,0.2-0.4,0.5-0.5,0.9s-0.2,0.8-0.3,1.2s-0.1,0.9-0.1,1.3s0,0.8,0,1.2c0,0.1,0,0.3,0,0.7
		S400.6,85.9,400.6,86z"/>
	<path class="st3" d="M420.6,83.7l1.4-6.5c0.1-1,0.3-2.1,0.5-3.1s0.5-1.9,0.8-2.7s0.7-1.4,1.1-1.9s0.8-0.8,1.2-0.8
		c0.5,0,0.8,0.2,1,0.6s0.3,0.8,0.3,1.2v0.6l-3.2,10.3c-0.2,0.7-0.3,1.2-0.4,1.7s-0.1,1.1-0.1,1.7c0,0.1,0,0.2,0,0.4s0,0.3,0,0.5
		s0.1,0.3,0.2,0.4s0.2,0.2,0.3,0.2c0.3,0,0.7-0.1,1.1-0.2s0.8-0.3,1.2-0.5s0.8-0.4,1.1-0.6s0.6-0.4,0.8-0.5c0.7-0.4,1.4-0.9,2-1.4
		s1.2-1,1.7-1.5s1-1,1.5-1.6s1-1.2,1.5-1.9c0.2-0.3,0.3-0.7,0.6-1.2s0.5-1.2,0.7-1.9s0.5-1.4,0.8-2.1s0.5-1.4,0.8-2s0.5-1.1,0.8-1.5
		s0.5-0.6,0.8-0.6c0.3,0,0.5,0.1,0.7,0.2s0.3,0.3,0.3,0.4s0.1,0.4,0.2,0.6s0.1,0.4,0.2,0.6c0,0,0.1,0.1,0.2,0.1s0.2,0.1,0.3,0.1
		c0.3,0.1,0.5,0.2,0.5,0.2s0,0.1,0,0.2s0,0.1,0,0.1s0.2,0,0.5,0h0.1c0.4,0,0.9-0.1,1.4-0.2s1.1-0.1,1.7-0.2s1.2-0.2,2-0.3l0.9,2
		c-0.9,0.3-1.7,0.4-2.3,0.6s-1.2,0.2-1.8,0.3s-1.2,0.1-1.8,0s-1.4-0.1-2.3-0.1l-0.3,0.2c-0.6,1.5-1.2,2.8-1.8,4.1s-1.3,2.4-2.1,3.4
		s-1.7,2-2.7,3s-2.2,1.8-3.6,2.6c-0.9,0.5-1.8,1-2.7,1.4s-1.8,0.7-2.8,0.7c-0.6,0-1.1-0.1-1.5-0.3s-0.7-0.5-0.9-0.9
		s-0.4-0.8-0.4-1.3s-0.1-1-0.1-1.5V83.7z"/>
	<path class="st3" d="M445.7,81.4c0.1-0.2,0.2-0.5,0.3-1s0.3-1,0.4-1.6s0.3-1.1,0.4-1.6s0.2-0.9,0.3-1.1c0.2-0.8,0.4-1.6,0.7-2.4
		s0.6-1.7,1.1-2.4s1.1-1.4,1.8-1.9s1.6-0.7,2.7-0.7c0.4,0,0.7,0.1,0.9,0.4s0.3,0.6,0.4,1c0,0.1,0,0.4,0,0.7s0,0.6,0,0.7
		c0,1.3-0.1,2.5-0.4,3.6s-0.7,2-1.2,2.9s-1.2,1.7-2,2.5s-1.7,1.6-2.7,2.4c0,0.1-0.1,0.3-0.1,0.5s-0.1,0.4-0.1,0.5v0.1
		c0,0.6,0.1,1,0.3,1.4s0.4,0.6,0.8,0.8s0.7,0.3,1.1,0.4s0.9,0.1,1.4,0.1c1.5,0,2.9-0.2,4.2-0.6s2.6-1.1,3.7-2
		c0.2-0.2,0.4-0.4,0.6-0.7s0.5-0.6,0.7-0.9s0.5-0.6,0.8-0.8s0.6-0.4,0.9-0.4s0.5,0.1,0.6,0.4s0.1,0.5,0.1,0.8c0,0.7-0.2,1.3-0.6,1.9
		s-1,1.2-1.6,1.6s-1.4,0.9-2.3,1.3s-1.7,0.7-2.6,0.9s-1.6,0.4-2.4,0.6s-1.4,0.2-1.9,0.2c-1.7,0-3-0.3-4.1-0.8s-1.9-1.6-2.3-3.3
		L445.7,81.4z M452.4,72.2c-0.6,0.6-1.1,1.1-1.5,1.5s-0.6,0.9-0.8,1.4s-0.4,1-0.5,1.6s-0.3,1.2-0.4,2c0.6-0.5,1.1-0.9,1.5-1.4
		s0.7-1,1-1.5s0.4-1,0.6-1.6S452.3,72.9,452.4,72.2z"/>
	<path class="st3" d="M463.2,87.6c0.1-0.8,0.2-1.5,0.4-2.2s0.3-1.4,0.5-2.1s0.4-1.4,0.6-2.1s0.5-1.6,0.8-2.5v-0.2
		c-1.3,0.7-2.1,1.1-2.6,1.1s-0.8-0.2-0.8-0.6s0.2-0.9,0.5-1.5s0.8-1.2,1.3-1.7s1-1,1.6-1.3s1-0.4,1.3-0.1c0.4,0,0.7,0.1,0.9,0.2
		s0.5,0.3,0.8,0.6c0.7-0.6,1.4-1,2-1.4s1.4-0.5,2.3-0.5c1.4,0,2.4,0.3,3.1,0.9s1.2,1.6,1.5,3c0.5-0.5,1-1,1.5-1.5s0.9-0.8,1.4-1.2
		s1.1-0.6,1.7-0.8s1.3-0.3,2-0.3c0.6,0,1.2,0.2,1.8,0.7s1,1,1.3,1.5c0,0.1,0,0.4,0,0.8s0,0.7,0,0.9c0,1.1-0.1,2.1-0.4,3.1
		s-0.4,2-0.4,3c0,0.4,0.1,0.9,0.2,1.3s0.4,0.7,1,0.7c0.8,0,1.4-0.2,2-0.5s1.2-0.7,1.7-1.1s1-0.9,1.4-1.5s0.8-1,1.2-1.5
		s0.7-0.8,1-1.1s0.6-0.5,0.9-0.5c0.2,0,0.5,0.1,0.7,0.3s0.4,0.4,0.4,0.6c0,0,0,0.1,0,0.1s0,0.1,0,0.1c-0.3,1-0.8,1.9-1.4,2.8
		s-1.3,1.6-2.1,2.3s-1.6,1.2-2.6,1.6s-2,0.6-3,0.6c-1,0-1.8-0.1-2.5-0.4s-1.2-0.9-1.6-1.9c0-0.1,0-0.3,0-0.6s0-0.5,0-0.6
		c0-1.2,0.1-2.3,0.4-3.4s0.4-2.2,0.4-3.3c0-0.1,0-0.3,0-0.6s0-0.5,0-0.6c-0.1-0.2-0.3-0.2-0.6-0.2s-0.5,0-0.7,0
		c-0.7,0-1.3,0.2-1.9,0.7s-1.1,1.1-1.6,1.8s-0.9,1.5-1.3,2.4s-0.7,1.8-1,2.7s-0.5,1.7-0.7,2.5s-0.3,1.4-0.3,1.9l-0.5,0.5h-1.6
		c-0.3,0-0.4-0.1-0.4-0.4s0-0.5,0-0.7c0-0.8,0.1-1.5,0.2-2.3s0.2-1.5,0.4-2.3s0.3-1.5,0.4-2.3s0.2-1.5,0.2-2.3
		c0-0.3-0.1-0.5-0.1-0.8s-0.1-0.6-0.2-0.8s-0.2-0.5-0.4-0.6s-0.5-0.3-0.8-0.3c-0.5,0-1,0.1-1.5,0.3s-0.9,0.4-1.3,0.7s-0.7,0.7-1,1.1
		s-0.5,0.9-0.6,1.4l-2.8,9.1l-0.4,0.5c-0.4,0-0.6,0-0.7,0c-0.3,0-0.7,0-1.1-0.1s-0.5-0.4-0.5-0.9V87.6z"/>
	<path class="st3" d="M495.2,81.4c0.1-0.2,0.2-0.5,0.3-1s0.3-1,0.4-1.6s0.3-1.1,0.4-1.6s0.2-0.9,0.3-1.1c0.2-0.8,0.4-1.6,0.7-2.4
		s0.6-1.7,1.1-2.4s1.1-1.4,1.8-1.9s1.6-0.7,2.7-0.7c0.4,0,0.7,0.1,0.9,0.4s0.3,0.6,0.4,1c0,0.1,0,0.4,0,0.7s0,0.6,0,0.7
		c0,1.3-0.1,2.5-0.4,3.6s-0.7,2-1.2,2.9s-1.2,1.7-2,2.5s-1.7,1.6-2.7,2.4c0,0.1-0.1,0.3-0.1,0.5s-0.1,0.4-0.1,0.5v0.1
		c0,0.6,0.1,1,0.3,1.4s0.4,0.6,0.8,0.8s0.7,0.3,1.1,0.4s0.9,0.1,1.4,0.1c1.5,0,2.9-0.2,4.2-0.6s2.6-1.1,3.7-2
		c0.2-0.2,0.4-0.4,0.6-0.7s0.5-0.6,0.7-0.9s0.5-0.6,0.8-0.8s0.6-0.4,0.9-0.4s0.5,0.1,0.6,0.4s0.1,0.5,0.1,0.8c0,0.7-0.2,1.3-0.6,1.9
		s-1,1.2-1.6,1.6s-1.4,0.9-2.3,1.3s-1.7,0.7-2.6,0.9s-1.6,0.4-2.4,0.6s-1.4,0.2-1.9,0.2c-1.7,0-3-0.3-4.1-0.8s-1.9-1.6-2.3-3.3
		L495.2,81.4z M501.9,72.2c-0.6,0.6-1.1,1.1-1.5,1.5s-0.6,0.9-0.8,1.4s-0.4,1-0.5,1.6s-0.3,1.2-0.4,2c0.6-0.5,1.1-0.9,1.5-1.4
		s0.7-1,1-1.5s0.4-1,0.6-1.6S501.9,72.9,501.9,72.2z"/>
	<path class="st3" d="M512.2,87.8l1.6-9.4v-1.3l0.9-6.2c0.1-0.1,0.3-0.2,0.5-0.2s0.4,0,0.5,0c0.3,0,0.5,0.1,0.9,0.3s0.5,0.4,0.5,0.7
		v3.2c0.1-0.1,0.3-0.3,0.7-0.6s0.6-0.6,1-0.9s0.7-0.6,1-0.9s0.5-0.5,0.6-0.6c0.3-0.3,0.8-0.6,1.2-0.8s0.9-0.3,1.4-0.3
		c0.9,0,1.6,0.3,2.1,0.8s0.8,1.3,0.8,2.2c0,0.1,0,0.1,0,0.1s0,0.1,0,0.1v0.2l-1.8,8v3.8c1,0,2-0.2,3-0.6s2.1-0.9,3-1.5
		s1.9-1.3,2.7-2s1.6-1.5,2.2-2.2h0.2c0.2,0,0.4,0.1,0.5,0.2s0.2,0.3,0.2,0.5c0,0.7-0.2,1.4-0.7,2s-1,1.3-1.7,1.9s-1.5,1.2-2.4,1.7
		s-1.8,1-2.7,1.4s-1.8,0.7-2.6,0.9s-1.6,0.3-2.2,0.3s-1.1-0.1-1.4-0.3s-0.6-0.5-0.8-0.9s-0.3-0.8-0.3-1.2s-0.1-0.9-0.1-1.4v-0.6
		L523,75v-1.5c-0.8,0-1.5,0.3-2.2,1s-1.4,1.5-2,2.4s-1.1,1.9-1.5,2.9s-0.7,1.8-0.9,2.4c-0.1,0.2-0.2,0.6-0.3,1.2s-0.2,1.2-0.4,1.8
		s-0.2,1.2-0.3,1.8s-0.2,1-0.2,1.2c0,0.2,0,0.3-0.2,0.4s-0.3,0.2-0.5,0.2s-0.4,0.1-0.6,0.1s-0.4,0-0.5,0c-0.3,0-0.6,0-0.8-0.1
		s-0.4-0.3-0.4-0.7V87.8z"/>
	<path class="st3" d="M534.9,76.1c0.1-0.1,0.2-0.3,0.4-0.6s0.3-0.5,0.3-0.7v-0.1c0,0,0-0.1-0.1-0.1s-0.1-0.1-0.1-0.1h-0.8
		c-0.8,0.3-1.7,0.4-2.7,0.5s-2,0.1-3,0.1s-1.8-0.1-2.5-0.3s-1.1-0.3-1.2-0.5s0.1-0.4,0.7-0.7s1.7-0.5,3.4-0.8c0.1,0,0.3,0,0.6-0.1
		s0.7-0.1,1.1-0.2s0.8-0.1,1.1-0.2s0.6-0.1,0.7-0.1c0.1,0,0.4-0.1,0.8-0.1s0.8,0,1.2-0.1s0.8,0,1.2,0s0.7,0,0.8,0l0.2-0.3l3.7-6.1
		c0.1-0.2,0.4-0.4,0.7-0.5s0.6-0.2,0.8-0.2c0.4,0,0.7,0.2,0.8,0.5s0.2,0.6,0.2,1c0,0,0,0.1,0,0.1s0,0.1,0,0.1v0.2l-2.1,5v0.3
		c0.1-0.2,0.2-0.3,0.4-0.3s0.3,0,0.4,0c0.5,0,0.9,0.2,1.4,0.5s0.7,0.7,0.7,1.3c0,0.3-0.1,0.5-0.2,0.6s-0.3,0.3-0.6,0.4
		s-0.5,0.2-0.7,0.2s-0.5,0.1-0.7,0.1c-0.4,0-0.7,0-1.1-0.1s-0.7-0.1-1.1-0.1c-0.3,0-0.7,0.2-0.9,0.5s-0.5,0.8-0.8,1.4
		s-0.4,1.2-0.6,1.9s-0.3,1.4-0.4,2.1s-0.2,1.3-0.3,1.9s-0.1,1-0.1,1.4c0,0.1,0,0.4,0,0.8s0,0.6,0,0.8c0,0.2,0.1,0.4,0.2,0.5
		s0.3,0.3,0.4,0.4h1.1c1.3,0,2.5-0.3,3.7-0.8s2.4-1.2,3.5-1.9c0.1,0,0.2-0.2,0.4-0.4s0.5-0.5,0.8-0.8s0.5-0.5,0.8-0.7
		s0.4-0.3,0.5-0.3c0.2,0,0.4,0.1,0.6,0.3s0.3,0.5,0.3,0.7c0,0.6-0.2,1.2-0.6,1.7s-1,1.1-1.6,1.6s-1.4,0.9-2.3,1.3s-1.7,0.8-2.5,1
		s-1.6,0.5-2.3,0.7s-1.3,0.2-1.8,0.2c-0.4,0-0.9-0.1-1.4-0.2s-0.9-0.3-1.3-0.5s-0.7-0.6-0.9-0.9s-0.4-0.8-0.4-1.4v-5.2L534.9,76.1z"
		/>
</g>
</svg>
